<svg width="269" height="269" viewBox="0 0 269 269" fill="none" xmlns="http://www.w3.org/2000/svg">
    <path fill-rule="evenodd" clip-rule="evenodd" d="M50 0C22.3858 0 0 22.3858 0 50V219C0 246.614 22.3858 269 50 269H219C246.614 269 269 246.614 269 219V50C269 22.3858 246.614 0 219 0H50ZM195.829 164.17C195.754 166.855 195.682 169.477 195.625 172.016L216 192.344V202.498H53V192.344L73.3751 172.016C73.3187 169.375 73.2444 166.646 73.1682 163.847C72.05 122.775 70.5254 66.7745 119.224 56.9613C114.721 27.6898 154.279 27.6693 149.776 56.9613C198.526 66.8774 196.968 123.063 195.829 164.17ZM124.323 172.016H144.698V151.688H124.323V172.016ZM124.323 131.381H144.698V90.7249H124.323V131.381ZM154.875 212.672C154.875 223.851 145.705 233 134.5 233C123.192 233 114.125 223.851 114.125 212.672H154.875Z" fill="#DE3F82"/>
</svg>
