
<svg xmlns="http://www.w3.org/2000/svg" viewBox="0 0 513.17 187.53"><defs><style>.cls-1{fill:#4a5468;}.cls-2{fill:#de3f82;}</style></defs><g id="Layer_2" data-name="Layer 2"><g id="Layer_1-2" data-name="Layer 1"><path class="cls-1" d="M503.26,66.79c.45-20.18,3-50.93-22.3-56.08,2.19-14.28-17-14.27-14.86,0-25.3,5.11-22.73,35.91-22.3,56.08l-9.91,9.91v5h79.28v-5Zm-24.78,0h-9.91V56.88h9.91Zm0-19.82h-9.91V27.16h9.91Zm-5,49.55a9.94,9.94,0,0,0,9.91-9.91H463.62A9.91,9.91,0,0,0,473.53,96.52Z"/><path class="cls-2" d="M69.82,159.24c.27,5.15-6,8.62-10,5.4-2.73-1.57-6.89-14.32-8.39-17H17.89c-1.45,2.55-5.68,15.6-8.28,17.07a5.92,5.92,0,0,1-9.18-6.81L28.48,90.52c1.94-6,11.08-6,13.06,0l27.71,66A7.53,7.53,0,0,1,69.82,159.24ZM23.41,134.68H45.94L34.56,108.32Z"/><path class="cls-2" d="M73.76,152.59c4.65-15.94,16.37,6,26.58,3,8.32.43,11.94-7.52,5.81-11.6-10.77-5.28-30.79-5.63-30-22.31.62-20.31,31.51-22.88,42.35-9.35,4.94,5.45-3.26,13-8.33,8-4-6.12-21.06-8.64-21.07.79.5,6.45,6.8,6.47,12.39,8.45,20,1.91,28.43,26,8.17,34.7C97.8,169,77.71,166.18,73.76,152.59Z"/><path class="cls-2" d="M128.06,152.59c4.65-15.94,16.36,6,26.58,3,8.31.43,11.93-7.52,5.8-11.6-10.76-5.28-30.79-5.63-30-22.31.63-20.31,31.51-22.88,42.36-9.35,4.94,5.45-3.26,13-8.34,8-4-6.12-21.06-8.64-21.06.79.5,6.45,6.8,6.47,12.39,8.45,20,1.91,28.43,26,8.16,34.7C152.09,169,132,166.18,128.06,152.59Z"/><path class="cls-2" d="M187.31,96.49c-1.61-1-1.67-4.4-1.58-6.53-.79-6.68,9-6.54,12.62-4.4,1.6,1,1.67,4.41,1.58,6.54C200.79,98.87,191,98.62,187.31,96.49Zm10.36,66.86c-4,4.28-12,1.13-11.6-4.9V111.92a6.76,6.76,0,1,1,13.52,0C198.86,114.83,201.5,162.78,197.67,163.35Z"/><path class="cls-2" d="M268.19,105.84c3.82-.3,1.19,52.75,1.92,55.09q0,13.74-8.51,20.33c-6.62,9.37-55.56,9.64-42.13-8.9,4.64-2.71,5-.9,11.26,1.13,13.83,5.52,28.71-.11,25.86-16.17-16.28,20.85-48.82,2.62-46.53-22.08C207.93,110.41,239,92.92,256.59,112,255.43,105.54,263.58,101.19,268.19,105.84ZM252.36,148.7c15.08-16.46-7-44.81-24.61-27C212.86,138.32,234.63,166.37,252.36,148.7Z"/><path class="cls-1" d="M332.85,110.74c6.91,8.92,3.71,36.29,4.39,47.71.34,9-13.86,9-13.51,0V129.61c2.27-18.46-26.35-16.73-25.46,0-.71,3.72,1.86,31.5-1.92,33.74-4,4.28-12,1.13-11.6-4.9V111.92c.1-10.27,15.65-8,13.52,1.92C305,103,326.05,99.9,332.85,110.74Z"/><path class="cls-1" d="M405.73,151.41c-21.94,35-72.91,3.56-53.17-32.33C374.4,83.89,425.47,115.56,405.73,151.41Zm-11.77-26C381.23,103.55,353,125,364.34,145,377.12,166.73,405.28,145.45,394,125.39Z"/><path class="cls-1" d="M453,154.11c6.5,12-15.11,13.51-21.29,8.22-8.56-4.59-3.5-35.51-4.79-43.76-4.68.39-11.7.05-11.49-6.31-.17-6.23,6.93-6.43,11.49-6.08-.22-5.29-.79-14.33,6.87-14.08,7.52-.19,6.83,8.92,6.65,14.08,5,0,14.57-1.34,14.31,6.31.19,7.47-9.44,6-14.31,6.08.53,2.2-1.32,33.28,1.24,34C444.85,155.73,450,150.25,453,154.11Z"/><path class="cls-1" d="M477.94,163.35c-4,4.28-12,1.13-11.6-4.9V111.92a6.76,6.76,0,1,1,13.52,0C479.13,114.83,481.77,162.78,477.94,163.35Z"/></g></g></svg>
